<svg width="81" height="80" viewBox="0 0 81 80" fill="none" xmlns="http://www.w3.org/2000/svg">
<path d="M13.8495 66.4839C17.3625 69.9999 23.0205 69.9999 34.3335 69.9999H46.3334C57.6464 69.9999 63.3044 69.9999 66.8174 66.4839C70.3334 62.9709 70.3334 57.3129 70.3334 45.9999C70.3334 42.49 70.3334 39.526 70.2284 37M66.8174 25.516C63.3044 22 57.6464 22 46.3334 22H34.3335C23.0205 22 17.3625 22 13.8495 25.516C10.3335 29.029 10.3335 34.687 10.3335 45.9999C10.3335 49.5099 10.3335 52.4739 10.4385 54.9999M40.3335 10C45.9914 10 48.8174 10 50.5754 11.758C52.3334 13.516 52.3334 16.342 52.3334 22M30.0915 11.758C28.3335 13.516 28.3335 16.342 28.3335 22" stroke="#322E86" stroke-width="3" stroke-linecap="round"/>
<path d="M40.3335 55.9988C43.6485 55.9988 46.3335 53.7609 46.3335 51.0009C46.3335 48.2409 43.6485 45.9999 40.3335 45.9999C37.0185 45.9999 34.3335 43.7619 34.3335 40.9989C34.3335 38.2389 37.0185 36.0009 40.3335 36.0009M40.3335 55.9988C37.0185 55.9988 34.3335 53.7609 34.3335 51.0009M40.3335 55.9988V57.9998M40.3335 36.0009V33.9999M40.3335 36.0009C43.6485 36.0009 46.3335 38.2389 46.3335 40.9989" stroke="#322E86" stroke-width="3" stroke-linecap="round"/>
</svg>
