<svg xmlns="http://www.w3.org/2000/svg" width="80" height="73" viewBox="0 0 80 73">
    <path fill="#2E2691" fill-rule="evenodd" d="M79.963 23.219a1.34 1.34 0 0 0-.072-.708c-.012-.032-.015-.066-.03-.096-.01-.023-.029-.04-.041-.063s-.017-.047-.03-.07L66.455.95a1.368 1.368 0 0 0-.215-.262l-.004-.003a1.31 1.31 0 0 0-.396-.247c-.018-.008-.03-.024-.05-.032C65.776.4 65.76.403 65.745.4a1.306 1.306 0 0 0-.418-.076H14.66c-.144 0-.281.03-.413.074-.015.004-.03.002-.043.007-.02.007-.032.023-.05.03-.14.058-.27.133-.383.234-.007.007-.016.01-.023.016a1.341 1.341 0 0 0-.217.264L.197 22.281c-.013.022-.018.047-.03.07-.012.022-.031.04-.042.062-.014.031-.017.064-.03.096a1.317 1.317 0 0 0 .033 1.052c.012.024.016.051.03.075.02.039.053.068.077.104.018.028.029.059.052.085l38.652 47.982c.002.004.005.006.008.009l.006.01c.004.005.011.006.015.011.11.132.245.232.393.312.04.022.078.04.119.058.161.068.332.116.51.116.153 0 .306-.027.458-.082.023-.008.037-.026.06-.036.068-.028.121-.073.183-.112a1.29 1.29 0 0 0 .274-.217c.019-.02.047-.03.064-.05l38.667-48c.021-.027.032-.06.052-.086.025-.036.056-.065.077-.104.014-.024.018-.05.03-.075.024-.05.042-.1.06-.153.018-.063.037-.124.048-.19zM42.793 2.99h20.612l-6.48 17.393L42.793 2.991zm11.73 18.666H25.46L39.99 3.773l14.533 17.884zM22.963 20.5L16.564 2.99h20.625L22.963 20.5zm32.494 3.824l-15.7 42.141L24.36 24.324h31.098zM65.628 4.661L76.251 21.66H59.296L65.628 4.66zm-51.287.018l6.204 16.978H3.731L14.34 4.68zm7.179 19.645l14.452 39.552L4.111 24.324H21.52zm21.667 40.573l15.116-40.573H75.87L43.187 64.897z"/>
</svg>
