<svg width="82" height="80" fill="none" xmlns="http://www.w3.org/2000/svg"><path d="M27.011 57.011v-6.667m0 0a6.668 6.668 0 0 0 5.774-3.333m-5.774 3.333a6.668 6.668 0 0 1-5.773-3.333" stroke="#695083" stroke-width="3" stroke-linecap="round"/><path d="M35.345 65.344H18.678m16.667 0c0-2.376 0-3.566.126-4.356.41-2.544.48-2.707 2.104-4.707.503-.62 2.37-2.293 6.106-5.64a24.937 24.937 0 0 0 8.33-18.63 24.9 24.9 0 0 0-1.423-8.333M35.345 65.344c0 3.117 0 4.674-.67 5.834a5 5 0 0 1-1.83 1.83c-1.16.67-2.717.67-5.834.67-3.116 0-4.673 0-5.833-.67a5 5 0 0 1-1.83-1.83c-.67-1.16-.67-2.717-.67-5.834m0 0c0-2.376 0-3.566-.127-4.356-.41-2.544-.48-2.707-2.103-4.707-.503-.62-2.373-2.293-6.107-5.64a25 25 0 0 1 29.15-40.297" stroke="#695083" stroke-width="3" stroke-linecap="round"/></svg>
