<svg width="80" height="80" viewBox="0 0 80 80" fill="none" xmlns="http://www.w3.org/2000/svg">
  <g clip-path="url(#clip0_1_634)">
    <path d="M2.3999 40C2.3999 60.7665 19.2335 77.6 40 77.6C60.7665 77.6 77.6 60.7665 77.6 40C77.6 19.2335 60.7665 2.3999 40 2.3999C19.2335 2.3999 2.3999 19.2335 2.3999 40Z" stroke="#322E86" stroke-width="3.2" stroke-linecap="round" stroke-linejoin="round"/>
    <path d="M43.7598 2.58789C43.7598 2.58789 55.0398 17.4399 55.0398 40C55.0398 62.56 43.7598 77.412 43.7598 77.412M36.2398 77.412C36.2398 77.412 24.9598 62.56 24.9598 40C24.9598 17.4399 36.2398 2.58789 36.2398 2.58789M4.76855 53.16H75.2311M4.76855 26.8399H75.2311" stroke="#322E86" stroke-width="3.2" stroke-linecap="round" stroke-linejoin="round"/>
  </g>
  <defs>
    <clipPath id="clip0_1_634">
      <rect width="80" height="80" fill="white"/>
    </clipPath>
  </defs>
</svg>
