<svg width="81" height="80" fill="none" xmlns="http://www.w3.org/2000/svg"><g clip-path="url(#a)"><mask id="b" fill="#fff"><path d="M10.334 27.5a17.5 17.5 0 1 1 29.49 12.745 27.54 27.54 0 0 1 15.17 20.42 3.75 3.75 0 1 1-7.41 1.175 20 20 0 0 0-32.73-12.064c-3.62 3.088-6.528 7.622-7.278 12.32-.078.487.258.697 0 1.117A3.752 3.752 0 0 1 .674 60.66a27.534 27.534 0 0 1 15.17-20.41 17.468 17.468 0 0 1-5.51-12.75Zm45-7.5a15.005 15.005 0 0 1 11.1 25.09 25.05 25.05 0 0 1 12.8 15.06 3.745 3.745 0 0 1-4.425 4.77 3.76 3.76 0 0 1-2.745-2.57 17.534 17.534 0 0 0-12.61-11.86 3.75 3.75 0 0 1-2.87-3.65v-1.76a3.75 3.75 0 0 1 2.08-3.36 7.5 7.5 0 0 0-3.33-14.22 3.75 3.75 0 0 1 0-7.5Zm-27.5-2.5a9.999 9.999 0 1 0-.453 19.993 9.999 9.999 0 0 0 .453-19.993Z"/></mask><path d="M10.334 27.5a17.5 17.5 0 1 1 29.49 12.745 27.54 27.54 0 0 1 15.17 20.42 3.75 3.75 0 1 1-7.41 1.175 20 20 0 0 0-32.73-12.064c-3.62 3.088-6.528 7.622-7.278 12.32-.078.487.258.697 0 1.117A3.752 3.752 0 0 1 .674 60.66a27.534 27.534 0 0 1 15.17-20.41 17.468 17.468 0 0 1-5.51-12.75Zm45-7.5a15.005 15.005 0 0 1 11.1 25.09 25.05 25.05 0 0 1 12.8 15.06 3.745 3.745 0 0 1-4.425 4.77 3.76 3.76 0 0 1-2.745-2.57 17.534 17.534 0 0 0-12.61-11.86 3.75 3.75 0 0 1-2.87-3.65v-1.76a3.75 3.75 0 0 1 2.08-3.36 7.5 7.5 0 0 0-3.33-14.22 3.75 3.75 0 0 1 0-7.5Zm-27.5-2.5a9.999 9.999 0 1 0-.453 19.993 9.999 9.999 0 0 0 .453-19.993Z" fill="#695083" stroke="#fff" stroke-width="4" mask="url(#b)"/></g><defs><clipPath id="a"><path fill="#fff" transform="translate(.333)" d="M0 0h80v80H0z"/></clipPath></defs></svg>
