<svg width="80" height="80" viewBox="0 0 80 80" fill="none" xmlns="http://www.w3.org/2000/svg">
  <path d="M60.634 4.5C60.0329 4.5 59.4564 4.73705 59.0313 5.15901C58.6062 5.58097 58.3674 6.15326 58.3674 6.75C58.3674
  7.34674 58.6062 7.91903 59.0313 8.34099C59.4564 8.76295 60.0329 9 60.634 9H68.7619L47.0346 30.5685L35.0399
  18.657C34.8293 18.4475 34.5792 18.2812 34.3038 18.1678C34.0285 18.0544 33.7333 17.996 33.4351 17.996C33.137 17.996
  32.8418 18.0544 32.5664 18.1678C32.2911 18.2812 32.041 18.4475 31.8304 18.657L9.1647 41.157C8.7391 41.5795 8.5
  42.1525 8.5 42.75C8.5 43.3475 8.7391 43.9205 9.1647 44.343C9.5903 44.7655 10.1675 45.0028 10.7694 45.0028C11.3713
  45.0028 11.9486 44.7655 12.3742 44.343L33.4351 23.4315L45.4298 35.343C45.6404 35.5525 45.8905 35.7188 46.1659
  35.8322C46.4412 35.9456 46.7364 36.004 47.0346 36.004C47.3327 36.004 47.6279 35.9456 47.9033 35.8322C48.1786
  35.7188 48.4288 35.5525 48.6393 35.343L71.9669 12.1815V20.25C71.9669 20.8467 72.2057 21.419 72.6307 21.841C73.0558
  22.2629 73.6323 22.5 74.2334 22.5C74.8346 22.5 75.4111 22.2629 75.8361 21.841C76.2612 21.419 76.5 20.8467 76.5
  20.25V6.75C76.5 6.15326 76.2612 5.58097 75.8361 5.15901C75.4111 4.73705 74.8346 4.5 74.2334 4.5H60.634ZM65.1671
  36C64.566 36 63.9895 36.2371 63.5644 36.659C63.1394 37.081 62.9006 37.6533 62.9006 38.25V74.25C62.9006 74.8467
  63.1394 75.419 63.5644 75.841C63.9895 76.2629 64.566 76.5 65.1671 76.5C65.7683 76.5 66.3448 76.2629 66.7699
  75.841C67.1949 75.419 67.4337 74.8467 67.4337 74.25V38.25C67.4337 37.6533 67.1949 37.081 66.7699 36.659C66.3448
  36.2371 65.7683 36 65.1671 36ZM28.902 45C28.3009 45 27.7244 45.2371 27.2993 45.659C26.8742 46.081 26.6354 46.6533
  26.6354 47.25V74.25C26.6354 74.8467 26.8742 75.419 27.2993 75.841C27.7244 76.2629 28.3009 76.5 28.902 76.5C29.5031
  76.5 30.0796 76.2629 30.5047 75.841C30.9298 75.419 31.1686 74.8467 31.1686 74.25V47.25C31.1686 46.6533 30.9298
  46.081 30.5047 45.659C30.0796 45.2371 29.5031 45 28.902 45ZM44.768 56.25C44.768 55.6533 45.0068 55.081 45.4319
  54.659C45.8569 54.2371 46.4334 54 47.0346 54C47.6357 54 48.2122 54.2371 48.6373 54.659C49.0623 55.081 49.3011
  55.6533 49.3011 56.25V74.25C49.3011 74.8467 49.0623 75.419 48.6373 75.841C48.2122 76.2629 47.6357 76.5 47.0346
  76.5C46.4334 76.5 45.8569 76.2629 45.4319 75.841C45.0068 75.419 44.768 74.8467 44.768 74.25V56.25ZM8.50286
  60.75C8.50286 60.1533 8.74166 59.581 9.16673 59.159C9.59179 58.7371 10.1683 58.5 10.7694 58.5C11.3706 58.5
  11.9471 58.7371 12.3721 59.159C12.7972 59.581 13.036 60.1533 13.036 60.75V74.25C13.036 74.8467 12.7972 75.419
  12.3721 75.841C11.9471 76.2629 11.3706 76.5 10.7694 76.5C10.1683 76.5 9.59179 76.2629 9.16673 75.841C8.74166
  75.419 8.50286 74.8467 8.50286 74.25V60.75Z" fill="#322E86"/>
</svg>
