<svg xmlns="http://www.w3.org/2000/svg" width="80" height="80" viewBox="0 0 80 80">
    <g fill="#A6A8B1" fill-rule="nonzero">
        <path d="M75.881 31.111h-7.484c-1.203 0-2.194-.662-2.655-1.773-.46-1.111-.226-2.282.622-3.132l5.292-5.29a4.094 4.094 0 0 0 1.206-2.913c0-1.1-.428-2.135-1.206-2.914l-6.745-6.745c-1.555-1.556-4.268-1.559-5.827 0l-5.29 5.29c-.85.849-2.024 1.086-3.132.624-1.11-.461-1.773-1.452-1.773-2.655V4.119A4.123 4.123 0 0 0 44.77 0h-9.54a4.123 4.123 0 0 0-4.119 4.119v7.484c0 1.203-.662 2.194-1.773 2.655-1.108.463-2.282.225-3.132-.624l-5.29-5.29c-1.559-1.559-4.272-1.556-5.827 0l-6.745 6.745a4.095 4.095 0 0 0-1.206 2.914c0 1.1.428 2.133 1.206 2.913l5.292 5.29c.848.85 1.081 2.02.622 3.132-.46 1.11-1.452 1.773-2.655 1.773H4.119A4.123 4.123 0 0 0 0 35.23v9.539a4.123 4.123 0 0 0 4.119 4.12h7.484c1.203 0 2.194.662 2.655 1.773.46 1.111.226 2.282-.622 3.132l-5.292 5.29a4.094 4.094 0 0 0-1.206 2.913c0 1.1.428 2.135 1.206 2.914l6.745 6.745c1.557 1.557 4.268 1.56 5.827 0l5.29-5.292c.85-.848 2.02-1.083 3.132-.622 1.11.461 1.773 1.452 1.773 2.655v7.484A4.123 4.123 0 0 0 35.23 80h9.539a4.123 4.123 0 0 0 4.118-4.119v-7.484c0-1.203.663-2.194 1.774-2.655 1.112-.462 2.281-.226 3.132.622l5.29 5.292c1.558 1.559 4.271 1.556 5.827 0l6.745-6.745a4.095 4.095 0 0 0 1.206-2.914c0-1.1-.428-2.133-1.206-2.913l-5.292-5.29c-.849-.85-1.082-2.02-.622-3.132.459-1.11 1.453-1.773 2.656-1.773h7.484A4.123 4.123 0 0 0 80 44.77v-9.54a4.123 4.123 0 0 0-4.119-4.119zm1.156 13.66c0 .636-.518 1.155-1.156 1.155h-7.484c-2.406 0-4.473 1.38-5.393 3.603-.921 2.222-.437 4.66 1.266 6.361l5.291 5.29a1.156 1.156 0 0 1 0 1.636l-6.745 6.745c-.45.45-1.183.454-1.635 0l-5.29-5.291c-1.703-1.703-4.14-2.184-6.362-1.266-2.222.92-3.603 2.987-3.603 5.393v7.484c0 .638-.519 1.156-1.156 1.156h-9.54a1.157 1.157 0 0 1-1.156-1.156v-7.484c0-2.406-1.38-4.473-3.603-5.393a5.904 5.904 0 0 0-2.271-.46c-1.502 0-2.959.592-4.09 1.724l-5.29 5.292a1.156 1.156 0 0 1-1.636 0l-6.745-6.745a1.156 1.156 0 0 1 0-1.636l5.291-5.29c1.701-1.7 2.187-4.14 1.266-6.362-.92-2.22-2.987-3.601-5.393-3.601H4.119a1.157 1.157 0 0 1-1.156-1.156v-9.54c0-.637.518-1.156 1.156-1.156h7.484c2.406 0 4.473-1.38 5.393-3.603.921-2.222.437-4.66-1.266-6.361l-5.291-5.29a1.156 1.156 0 0 1 0-1.636l6.745-6.745a1.156 1.156 0 0 1 1.635 0l5.29 5.29c1.7 1.7 4.137 2.187 6.362 1.265 2.222-.918 3.603-2.985 3.603-5.391V4.119c0-.638.519-1.156 1.156-1.156h9.539c.638 0 1.157.518 1.157 1.156v7.484c0 2.406 1.38 4.473 3.603 5.393 2.225.921 4.66.435 6.361-1.266l5.29-5.29a1.156 1.156 0 0 1 1.636 0l6.745 6.745a1.156 1.156 0 0 1 0 1.636l-5.291 5.29c-1.701 1.7-2.187 4.14-1.266 6.362.92 2.222 2.987 3.603 5.393 3.603h7.484a1.155 1.155 0 0 1 1.156 1.154v9.54z"/>
        <path d="M40 26.667c-7.353 0-13.333 5.98-13.333 13.333S32.647 53.333 40 53.333 53.333 47.353 53.333 40 47.353 26.667 40 26.667zm0 23.703c-5.717 0-10.37-4.653-10.37-10.37S34.283 29.63 40 29.63 50.37 34.283 50.37 40 45.717 50.37 40 50.37z"/>
    </g>
</svg>
