<svg xmlns="http://www.w3.org/2000/svg" width="80" height="80" viewBox="0 0 80 80">
    <g fill="#A6A8B1" fill-rule="nonzero">
        <path d="M40 0C17.944 0 0 17.944 0 40s17.944 40 40 40 40-17.944 40-40S62.056 0 40 0zm0 77.333C19.415 77.333 2.667 60.585 2.667 40 2.667 19.415 19.415 2.667 40 2.667c20.585 0 37.333 16.748 37.333 37.333 0 20.585-16.748 37.333-37.333 37.333z"/>
        <path d="M40 8c-.736 0-1.333.596-1.333 1.333V40h-20a1.333 1.333 0 1 0 0 2.667H40c.736 0 1.333-.596 1.333-1.334v-32C41.333 8.596 40.736 8 40 8z"/>
    </g>
</svg>
