<svg xmlns="http://www.w3.org/2000/svg" width="22" height="22" viewBox="0 0 22 22">
    <path fill="#2E2691" fill-rule="nonzero" d="M21.955 12.89v8.118h-4.706v-7.574c0-1.902-.68-3.2-2.384-3.2-1.3 0-2.074.875-2.414 1.721-.124.303-.156.724-.156 1.147v7.906H7.588s.063-12.827 0-14.156h4.706V8.86c-.01.015-.022.03-.03.045h.03V8.86c.626-.964 1.743-2.34 4.242-2.34 3.097 0 5.419 2.024 5.419 6.372zM2.664.029C1.054.028 0 1.085 0 2.474 0 3.832 1.023 4.92 2.601 4.92h.032c1.641 0 2.662-1.088 2.662-2.447-.03-1.39-1.02-2.446-2.631-2.446zM.28 21.008h4.705V6.852H.28v14.156z"/>
</svg>
