<svg width="32" height="33" fill="none" xmlns="http://www.w3.org/2000/svg"><g clip-path="url(#a)"><path d="M29.638.5H2.362A2.362 2.362 0 0 0 0 2.862v27.276A2.362 2.362 0 0 0 2.362 32.5h27.276A2.362 2.362 0 0 0 32 30.138V2.862A2.362 2.362 0 0 0 29.638.5Zm-20.1 27.26H4.727V12.478h4.81V27.76Zm-2.41-17.4A2.762 2.762 0 1 1 9.908 7.6a2.722 2.722 0 0 1-2.778 2.76Zm20.143 17.413h-4.809v-8.349c0-2.462-1.046-3.222-2.398-3.222-1.426 0-2.826 1.076-2.826 3.285v8.286h-4.811V12.49h4.626v2.118h.063c.464-.94 2.09-2.547 4.573-2.547 2.684 0 5.584 1.593 5.584 6.26l-.002 9.453Z" fill="#0A66C2"/></g><defs><clipPath id="a"><path fill="#fff" transform="translate(0 .5)" d="M0 0h32v32H0z"/></clipPath></defs></svg>
