<svg width="22px" height="18px" viewBox="0 0 22 18" version="1.1" xmlns="http://www.w3.org/2000/svg" xmlns:xlink="http://www.w3.org/1999/xlink">
  <g id="Page-1" stroke="none" stroke-width="1" fill="none" fill-rule="evenodd">
    <g id="01-Home" transform="translate(-1204.000000, -873.000000)" fill="#2E2691" fill-rule="nonzero">
      <g id="Aviator" transform="translate(640.000000, 407.000000)">
        <g id="Group-6" transform="translate(15.000000, 370.000000)">
          <g id="(arrow)" transform="translate(530.000000, 75.000000)">
            <path d="M39.1781959,28.3285786 L39.2115696,28.3359803 L24.9050507,28.3359803 L29.4024976,23.766154 C29.622729,23.5430465 29.7435346,23.2408116 29.7435346,22.9235972 C29.7435346,22.6063828 29.622729,22.3062627 29.4024976,22.0826265 L28.7026939,21.3727711 C28.4826364,21.1496636 28.1894002,21.0263024 27.8766961,21.0263024 C27.5638181,21.0263024 27.2704081,21.1487825 27.0503506,21.3718899 L19.3408636,29.1875248 C19.119937,29.4115134 18.9991314,29.7098712 18.9999958,30.0272619 C18.9991314,30.3464148 19.119937,30.6449488 19.3408636,30.868585 L27.0503506,38.6849248 C27.2704081,38.907856 27.5636443,39.0305123 27.8766961,39.0305123 C28.1894002,39.0305123 28.4826364,38.9076798 28.7026939,38.6849248 L29.4024976,37.9750694 C29.622729,37.7523143 29.7435346,37.4548377 29.7435346,37.1376233 C29.7435346,36.8205851 29.622729,36.5387929 29.4024976,36.3158617 L24.8542949,31.720482 L39.1941875,31.720482 C39.8385423,31.720482 40.379995,31.1574264 40.379995,30.5044933 L40.379995,29.5005097 C40.379995,28.8475766 39.8225507,28.3285786 39.1781959,28.3285786 Z" id="Shape" transform="translate(29.689995, 30.028407) scale(-1, 1) translate(-29.689995, -30.028407) "></path>
          </g>
        </g>
      </g>
    </g>
  </g>
</svg>
