<svg xmlns="http://www.w3.org/2000/svg" width="155" height="36" viewBox="0 0 155 36">
    <defs>
        <linearGradient id="a" x1="67.344%" x2="29.259%" y1="47.303%" y2="52.697%">
            <stop offset="0%" stop-color="#57B314"/>
            <stop offset="100%" stop-color="#1F9F04"/>
        </linearGradient>
        <linearGradient id="b" x1="9.966%" x2="97.743%" y1="0%" y2="0%">
            <stop offset="0%" stop-color="#57B314"/>
            <stop offset="100%" stop-color="#1E9F04"/>
        </linearGradient>
        <linearGradient id="c" x1="9.966%" x2="97.743%" y1="0%" y2="0%">
            <stop offset="0%" stop-color="#57B314"/>
            <stop offset="100%" stop-color="#1E9F04"/>
        </linearGradient>
        <linearGradient id="d" x1="9.966%" x2="97.743%" y1="0%" y2="0%">
            <stop offset="0%" stop-color="#57B314"/>
            <stop offset="100%" stop-color="#1E9F04"/>
        </linearGradient>
        <linearGradient id="e" x1="9.966%" x2="97.743%" y1="0%" y2="0%">
            <stop offset="0%" stop-color="#57B314"/>
            <stop offset="100%" stop-color="#1E9F04"/>
        </linearGradient>
        <linearGradient id="f" x1="9.966%" x2="97.743%" y1="0%" y2="0%">
            <stop offset="0%" stop-color="#57B314"/>
            <stop offset="100%" stop-color="#1E9F04"/>
        </linearGradient>
        <linearGradient id="g" x1="9.966%" x2="97.743%" y1="0%" y2="0%">
            <stop offset="0%" stop-color="#57B314"/>
            <stop offset="100%" stop-color="#1E9F04"/>
        </linearGradient>
    </defs>
    <g fill="none" fill-rule="evenodd">
        <path fill="#ECEDF3" stroke="url(#a)" d="M8 .5A7.5 7.5 0 0 0 .5 8v20A7.5 7.5 0 0 0 8 35.5h139a7.5 7.5 0 0 0 7.5-7.5V8A7.5 7.5 0 0 0 147 .5H8z"/>
        <path fill="#0D1C2D" d="M45.36 12.992V17h-2.344V5.625h4.437c.854 0 1.606.156 2.254.469.648.312 1.147.756 1.496 1.332.35.575.524 1.23.524 1.965 0 1.114-.382 1.993-1.145 2.636-.763.644-1.819.965-3.168.965H45.36zm0-1.898h2.093c.62 0 1.093-.146 1.418-.438.326-.291.488-.708.488-1.25 0-.557-.164-1.008-.492-1.351-.328-.344-.781-.521-1.36-.532H45.36v3.57zm12.578-.43a6.134 6.134 0 0 0-.813-.062c-.854 0-1.414.289-1.68.867V17h-2.258V8.547h2.133l.063 1.008c.453-.776 1.08-1.164 1.883-1.164.25 0 .484.033.703.101l-.032 2.172zm.734 2.031c0-.838.161-1.586.484-2.242a3.546 3.546 0 0 1 1.395-1.523c.607-.36 1.311-.54 2.113-.54 1.14 0 2.072.35 2.793 1.047.721.698 1.124 1.646 1.207 2.844l.016.578c0 1.297-.362 2.338-1.086 3.121-.724.784-1.696 1.176-2.914 1.176-1.22 0-2.192-.39-2.918-1.172-.727-.78-1.09-1.843-1.09-3.187v-.102zm2.258.164c0 .802.15 1.416.453 1.84.302.425.734.637 1.297.637.547 0 .974-.21 1.28-.629.308-.42.462-1.09.462-2.012 0-.786-.154-1.396-.461-1.828-.307-.432-.74-.648-1.297-.648-.552 0-.98.215-1.281.644-.302.43-.453 1.095-.453 1.996zm10.304 1.383l1.57-5.695h2.36L72.312 17h-2.156l-2.851-8.453h2.36l1.57 5.695zM81.054 17a2.507 2.507 0 0 1-.226-.758c-.547.61-1.258.914-2.133.914-.828 0-1.514-.24-2.058-.718a2.312 2.312 0 0 1-.817-1.813c0-.896.332-1.583.996-2.063.664-.479 1.624-.72 2.88-.726h1.038v-.484c0-.391-.1-.704-.3-.938-.2-.234-.517-.351-.95-.351-.38 0-.678.09-.894.273-.216.182-.324.432-.324.75h-2.258c0-.49.15-.943.453-1.36.302-.416.73-.743 1.281-.98.552-.237 1.172-.355 1.86-.355 1.041 0 1.868.261 2.48.785.612.523.918 1.259.918 2.207v3.664c.005.802.117 1.409.336 1.82V17h-2.281zm-1.867-1.57c.334 0 .641-.075.922-.223.282-.148.49-.348.625-.598v-1.453h-.843c-1.13 0-1.732.39-1.805 1.172l-.008.133c0 .281.1.513.297.695.198.183.469.274.813.274zm13.165-2.578c0 1.354-.29 2.41-.868 3.168-.578.757-1.385 1.136-2.421 1.136-.917 0-1.649-.351-2.196-1.054l-.101.898h-2.032V5h2.258v4.305c.521-.61 1.206-.914 2.055-.914 1.031 0 1.84.379 2.426 1.136.586.758.879 1.825.879 3.2v.125zm-2.258-.165c0-.854-.136-1.477-.406-1.87-.271-.394-.675-.59-1.211-.59-.72 0-1.214.294-1.485.882v3.336c.276.594.776.89 1.5.89.73 0 1.209-.358 1.438-1.077.11-.344.164-.867.164-1.57zM96.125 17h-2.266V5h2.266v12zm5.016-3.195l1.562-5.258h2.422l-3.398 9.765-.188.446c-.505 1.104-1.338 1.656-2.5 1.656-.328 0-.661-.05-1-.148v-1.711l.344.008c.427 0 .746-.066.957-.196.21-.13.376-.346.496-.648l.266-.696-2.961-8.476h2.43l1.57 5.258zm15.851-1.453h-4.5V17h-2.344V5.625h7.407v1.898h-5.063v2.938h4.5v1.89zM123.664 17a2.507 2.507 0 0 1-.227-.758c-.546.61-1.257.914-2.132.914-.828 0-1.515-.24-2.059-.718a2.312 2.312 0 0 1-.816-1.813c0-.896.332-1.583.996-2.063.664-.479 1.623-.72 2.879-.726h1.039v-.484c0-.391-.1-.704-.301-.938-.2-.234-.517-.351-.95-.351-.38 0-.678.09-.894.273-.216.182-.324.432-.324.75h-2.258c0-.49.151-.943.453-1.36.302-.416.73-.743 1.282-.98s1.171-.355 1.859-.355c1.042 0 1.868.261 2.48.785.612.523.918 1.259.918 2.207v3.664c.006.802.118 1.409.336 1.82V17h-2.28zm-1.867-1.57c.333 0 .64-.075.922-.223.281-.148.49-.348.625-.598v-1.453h-.844c-1.13 0-1.732.39-1.805 1.172l-.007.133c0 .281.098.513.296.695.198.183.47.274.813.274zm7.93 1.57h-2.266V8.547h2.266V17zm-2.399-10.64c0-.34.113-.618.34-.837.227-.218.535-.328.926-.328.385 0 .692.11.922.328.229.22.343.498.343.836 0 .344-.116.625-.347.844-.232.219-.538.328-.918.328s-.686-.11-.918-.328a1.108 1.108 0 0 1-.348-.844zm9.008 4.304a6.134 6.134 0 0 0-.813-.062c-.854 0-1.414.289-1.68.867V17h-2.257V8.547h2.133l.062 1.008c.453-.776 1.081-1.164 1.883-1.164.25 0 .484.033.703.101l-.031 2.172zM66.885 22.395h-2.742V30h-1.12v-7.605h-2.736v-.926h6.598v.926zm3.726 7.722c-.86 0-1.558-.282-2.097-.846-.54-.565-.809-1.32-.809-2.265v-.2c0-.628.12-1.19.36-1.684s.577-.88 1.008-1.16c.432-.28.9-.419 1.404-.419.824 0 1.464.271 1.921.814.457.543.686 1.32.686 2.332v.452h-4.295c.016.625.198 1.13.548 1.514.35.385.794.577 1.333.577.383 0 .707-.078.973-.234.265-.156.498-.363.697-.621l.662.516c-.531.816-1.328 1.224-2.39 1.224zm-.134-5.683c-.438 0-.805.159-1.102.477-.297.318-.48.765-.55 1.339H72v-.082c-.031-.55-.18-.978-.445-1.28-.266-.303-.625-.454-1.078-.454zm6.404 4.798c.387 0 .724-.117 1.014-.351.289-.235.449-.527.48-.879H79.4c-.02.363-.144.709-.375 1.037a2.47 2.47 0 0 1-.922.785 2.663 2.663 0 0 1-1.222.293c-.863 0-1.55-.288-2.06-.864-.51-.576-.764-1.364-.764-2.364v-.182c0-.617.113-1.166.34-1.646.226-.48.551-.854.975-1.12.424-.265.925-.398 1.503-.398.71 0 1.302.213 1.772.639.471.425.722.978.753 1.658h-1.025a1.494 1.494 0 0 0-.466-1.01 1.45 1.45 0 0 0-1.034-.396c-.55 0-.978.198-1.28.594-.303.397-.454.97-.454 1.72v.205c0 .73.15 1.293.45 1.688.302.394.731.591 1.29.591zm4.822-4.804c.48-.59 1.106-.885 1.875-.885 1.34 0 2.016.756 2.027 2.268V30h-1.084v-4.195c-.003-.457-.108-.795-.313-1.014-.205-.219-.524-.328-.958-.328-.352 0-.66.094-.926.281a1.91 1.91 0 0 0-.62.738V30h-1.085v-9h1.084v3.428zm6.55-.768l.036.797c.484-.61 1.117-.914 1.898-.914 1.34 0 2.016.756 2.028 2.268V30H91.13v-4.195c-.004-.457-.109-.795-.314-1.014-.205-.219-.524-.328-.958-.328-.351 0-.66.094-.925.281a1.91 1.91 0 0 0-.621.738V30h-1.084v-6.34h1.025zm5.31 3.111c0-.62.122-1.18.366-1.675a2.732 2.732 0 0 1 1.02-1.149c.435-.27.932-.404 1.49-.404.864 0 1.562.299 2.095.896.533.598.8 1.393.8 2.385v.076c0 .618-.118 1.171-.355 1.662-.236.49-.574.872-1.013 1.145-.44.273-.945.41-1.515.41-.86 0-1.555-.299-2.089-.896-.533-.598-.8-1.389-.8-2.373v-.077zm1.09.13c0 .703.162 1.267.489 1.693.326.426.762.638 1.31.638.55 0 .987-.215 1.312-.647.324-.432.486-1.036.486-1.814 0-.695-.165-1.258-.495-1.69a1.574 1.574 0 0 0-1.316-.647c-.535 0-.966.212-1.294.638-.329.426-.493 1.035-.493 1.828zM101.87 30h-1.084v-9h1.084v9zm1.447-3.229c0-.62.122-1.18.367-1.675a2.732 2.732 0 0 1 1.02-1.149c.435-.27.932-.404 1.49-.404.864 0 1.562.299 2.095.896.533.598.8 1.393.8 2.385v.076c0 .618-.118 1.171-.355 1.662-.236.49-.574.872-1.013 1.145-.44.273-.945.41-1.515.41-.86 0-1.556-.299-2.089-.896-.533-.598-.8-1.389-.8-2.373v-.077zm1.09.13c0 .703.163 1.267.49 1.693.326.426.762.638 1.309.638.55 0 .988-.215 1.313-.647.324-.432.486-1.036.486-1.814 0-.695-.165-1.258-.495-1.69a1.574 1.574 0 0 0-1.316-.647c-.535 0-.966.212-1.295.638-.328.426-.492 1.035-.492 1.828zm5.783-.124c0-.988.229-1.774.686-2.358.457-.584 1.062-.876 1.816-.876.774 0 1.377.273 1.81.82l.054-.703h.99v6.188c0 .82-.243 1.466-.73 1.94-.486.472-1.14.708-1.96.708a3.26 3.26 0 0 1-1.341-.293c-.438-.195-.772-.463-1.002-.803l.562-.65c.465.574 1.033.861 1.705.861.528 0 .939-.148 1.234-.445.295-.297.442-.715.442-1.254v-.545c-.434.5-1.025.75-1.775.75-.743 0-1.343-.299-1.802-.896-.46-.598-.689-1.412-.689-2.444zm1.09.123c0 .715.147 1.277.44 1.685.293.408.703.612 1.23.612.684 0 1.186-.31 1.506-.931V25.37c-.332-.605-.83-.908-1.494-.908-.527 0-.94.205-1.236.615-.297.41-.446 1.018-.446 1.822zm7.975 1.512l1.476-4.752h1.16l-2.548 7.319c-.395 1.054-1.022 1.582-1.881 1.582l-.205-.018-.404-.076v-.88l.292.024c.368 0 .654-.074.859-.222.205-.149.374-.42.507-.815l.24-.644-2.262-6.27h1.184l1.582 4.752z"/>
        <g fill-rule="nonzero">
            <path fill="url(#b)" d="M21.763 4.48A43.165 43.165 0 0 1 11.377.077a.546.546 0 0 0-.555 0A41.983 41.983 0 0 1 .436 4.48a.546.546 0 0 0-.401.526v5.578c0 5.743 2.65 9.545 4.872 11.723 2.393 2.345 5.18 3.641 6.193 3.641 1.012 0 3.8-1.296 6.192-3.641 2.223-2.178 4.872-5.98 4.872-11.723V5.007a.546.546 0 0 0-.401-.526zm-.69 6.105c0 5.364-2.472 8.912-4.545 10.943-2.353 2.306-4.87 3.33-5.428 3.33-.56 0-3.076-1.024-5.43-3.33-2.072-2.031-4.544-5.579-4.544-10.943V5.422A42.99 42.99 0 0 0 11.1 1.178a44.35 44.35 0 0 0 9.973 4.243v5.164z" transform="translate(12 5)"/>
            <path fill="url(#c)" d="M6.261 5.36a.546.546 0 0 0-.708-.307 44.41 44.41 0 0 1-2.975 1.051.546.546 0 0 0-.382.52v2.109a.546.546 0 0 0 1.092 0v-1.71c.896-.29 1.79-.61 2.665-.955a.546.546 0 0 0 .308-.707z" transform="translate(12 5)"/>
            <path fill="url(#d)" d="M7.298 5.464a.546.546 0 0 0 .219-.046l.01-.004a.545.545 0 1 0-.44-.999l-.01.004a.545.545 0 0 0 .221 1.045z" transform="translate(12 5)"/>
            <path fill="url(#e)" d="M17.603 17.601a.546.546 0 0 0-.756.158c-.45.689-.977 1.348-1.568 1.96-.486.503-1.013.971-1.566 1.393a.546.546 0 0 0 .662.868c.596-.455 1.164-.96 1.689-1.502.639-.661 1.21-1.375 1.697-2.121a.546.546 0 0 0-.158-.756z" transform="translate(12 5)"/>
            <path fill="url(#f)" d="M12.445 21.968l-.03.018a.546.546 0 0 0 .546.945l.036-.021a.546.546 0 1 0-.552-.942z" transform="translate(12 5)"/>
            <path fill="url(#g)" d="M7.379 11.86a1.763 1.763 0 0 0-1.255-.52 1.777 1.777 0 0 0-1.255 3.03l3.223 3.224c.335.335.78.52 1.255.52.474 0 .92-.185 1.255-.52l6.729-6.729a1.777 1.777 0 0 0-1.256-3.03c-.474 0-.92.185-1.255.52L9.347 13.83 7.379 11.86zm8.213-2.733c.13-.129.3-.2.483-.2s.355.071.484.2c.266.266.266.7 0 .966L9.83 16.822c-.129.129-.3.2-.483.2a.68.68 0 0 1-.483-.2L5.64 13.599a.684.684 0 0 1 .966-.966l2.354 2.354a.546.546 0 0 0 .772 0l5.86-5.86z" transform="translate(12 5)"/>
        </g>
    </g>
</svg>
