<svg width="89" height="88" viewBox="0 0 89 88" fill="none" xmlns="http://www.w3.org/2000/svg">
<g clip-path="url(#clip0_603_158)">
<path d="M84.0738 44.4676L84.0032 44.4412V31.9655C84.0032 27.8982 80.8093 24.4484 76.7243 24.1219L76.6625 24.1131L65.1133 3.9527C64.0634 2.11752 62.3605 0.802905 60.3313 0.264706C58.3373 -0.264671 56.1668 0.0176636 54.3758 1.05877L14.8755 24.0602H7.91418C3.54682 24.0602 0 27.607 0 31.9655V80.0858C0 84.4444 3.54682 88 7.91418 88H76.089C80.4476 88 84.0032 84.4532 84.0032 80.0858V67.6102L84.0738 67.5837C86.4295 66.7456 88.0088 64.5134 88.0088 62.0429V50.0173C88.0088 47.538 86.4295 45.3146 84.0738 44.4676ZM54.1817 24.0602L67.7425 16.1636L72.2599 24.0602H54.1817ZM38.2916 24.0602L63.7634 9.22881L65.8544 12.8815L46.6469 24.0602H38.2916ZM22.4103 24.0602L56.2904 4.3409C57.2079 3.80271 58.3196 3.65271 59.3519 3.92623C60.4018 4.20856 61.2841 4.88793 61.8312 5.84963L61.8841 5.94668L30.7568 24.0602H22.4103ZM3.79386 31.9655C3.79386 29.6892 5.64668 27.8452 7.91418 27.8452H76.089C78.3653 27.8452 80.2093 29.698 80.2093 31.9655V44.1059H68.069C61.4959 44.1059 56.1492 49.4526 56.1492 56.0257C56.1492 62.5988 61.4959 67.9455 68.069 67.9455H80.2093V80.0858C80.2093 82.3622 78.3565 84.2062 76.089 84.2062H7.91418C5.63786 84.2062 3.79386 82.3533 3.79386 80.0858V31.9655ZM68.069 47.8998H82.1063C83.2709 47.8998 84.2238 48.8526 84.2238 50.0173V62.0518C84.2238 63.2164 83.2709 64.1693 82.1063 64.1693H68.069C63.5869 64.1693 59.9342 60.5254 59.9342 56.0345C59.9342 51.5436 63.5781 47.8998 68.069 47.8998Z" fill="#A5A8B1"/>
<path d="M68.0681 59.2631C69.8503 59.2631 71.3061 57.8074 71.3061 56.0251C71.3061 54.2429 69.8503 52.7871 68.0681 52.7871C66.2859 52.7871 64.8301 54.2429 64.8301 56.0251C64.8301 57.8162 66.277 59.2631 68.0681 59.2631Z" fill="#A5A8B1"/>
</g>
<defs>
<clipPath id="clip0_603_158">
<rect width="88.0088" height="88" fill="white"/>
</clipPath>
</defs>
</svg>
