<svg width="77" height="88" viewBox="0 0 77 88" fill="none" xmlns="http://www.w3.org/2000/svg">
<g clip-path="url(#clip0_603_170)">
<path d="M58.0429 70.2147C57.0102 70.2147 56.1717 71.0532 56.1717 72.0859V82.1127C56.1717 83.2955 55.2096 84.2487 54.0357 84.2487H5.88726C4.70451 84.2487 3.75125 83.2867 3.75125 82.1127V13.9105C3.75125 12.7278 4.71334 11.7745 5.88726 11.7745H8.20863L8.19097 11.9246C8.08506 12.6837 8.0321 13.3192 8.0321 13.9105V17.9266C8.0321 18.9593 8.87061 19.7978 9.90331 19.7978H50.0197C51.0524 19.7978 51.8909 18.9593 51.8909 17.9266V13.9105C51.8909 13.3103 51.8379 12.6837 51.732 11.9246L51.7143 11.7745H54.0357C55.2185 11.7745 56.1717 12.7366 56.1717 13.9105V23.9374C56.1717 24.9701 57.0102 25.8086 58.0429 25.8086C59.0756 25.8086 59.9141 24.9701 59.9141 23.9374V13.9105C59.9141 10.6624 57.275 8.02327 54.0269 8.02327H50.5669L50.5316 7.94383C48.2279 3.12457 43.3027 0 37.9803 0H21.9338C16.6114 0 11.6863 3.12457 9.38255 7.95266L9.34724 8.0321H5.88726C2.63912 8.02327 0 10.6624 0 13.9105V82.1127C0 85.3609 2.63912 88 5.88726 88H54.0357C57.2839 88 59.923 85.3609 59.923 82.1127V72.0859C59.9142 71.0532 59.0756 70.2147 58.0429 70.2147ZM11.7745 16.0465V13.9105C11.7745 8.30572 16.3378 3.75125 21.9338 3.75125H37.9803C43.5852 3.75125 48.1396 8.31454 48.1396 13.9105V16.0465H11.7745Z" fill="#A5A8B1"/>
<path d="M29.9567 7.89062C28.8534 7.89062 27.9531 8.79093 27.9531 9.89424C27.9531 10.9975 28.8534 11.8978 29.9567 11.8978C31.06 11.8978 31.9603 10.9975 31.9603 9.89424C31.9603 8.79093 31.06 7.89062 29.9567 7.89062Z" fill="#A5A8B1"/>
<path d="M48.0154 27.9528C48.0154 26.8495 47.1151 25.9492 46.0118 25.9492H13.9099C12.8066 25.9492 11.9062 26.8495 11.9062 27.9528C11.9062 29.0561 12.8066 29.9564 13.9099 29.9564H46.0029C47.1151 29.9564 48.0154 29.0561 48.0154 27.9528Z" fill="#A5A8B1"/>
<path d="M35.9761 35.9766H13.9099C12.8066 35.9766 11.9062 36.8769 11.9062 37.9802C11.9062 39.0835 12.8066 39.9838 13.9099 39.9838H35.9761C37.0794 39.9838 37.9797 39.0835 37.9797 37.9802C37.9797 36.8769 37.0794 35.9766 35.9761 35.9766Z" fill="#A5A8B1"/>
<path d="M13.9099 50.0189H33.9725C35.0758 50.0189 35.9761 49.1186 35.9761 48.0153C35.9761 46.912 35.0758 46.0117 33.9725 46.0117H13.9099C12.8066 46.0117 11.9062 46.912 11.9062 48.0153C11.9062 49.1186 12.8066 50.0189 13.9099 50.0189Z" fill="#A5A8B1"/>
<path d="M29.9567 70.0814H46.0033C47.1066 70.0814 48.0069 69.1811 48.0069 68.0778C48.0069 66.9745 47.1066 66.0742 46.0033 66.0742H29.9567C28.8534 66.0742 27.9531 66.9745 27.9531 68.0778C27.9531 69.1811 28.8534 70.0814 29.9567 70.0814Z" fill="#A5A8B1"/>
<path d="M13.9099 66.0664C12.8066 66.0664 11.9062 66.9667 11.9062 68.07C11.9062 69.1733 12.8066 70.0736 13.9099 70.0736H21.9331C23.0364 70.0736 23.9367 69.1733 23.9367 68.07C23.9367 66.9667 23.0364 66.0664 21.9331 66.0664H13.9099Z" fill="#A5A8B1"/>
<path d="M37.9797 58.0427C37.9797 56.9394 37.0794 56.0391 35.9761 56.0391H13.9099C12.8066 56.0391 11.9062 56.9394 11.9062 58.0427C11.9062 59.146 12.8066 60.0463 13.9099 60.0463H35.9761C37.0794 60.0463 37.9797 59.146 37.9797 58.0427Z" fill="#A5A8B1"/>
<path d="M58.0423 29.957C48.0861 29.957 39.9922 38.0597 39.9922 48.0072C39.9922 57.9546 48.0949 66.0573 58.0423 66.0573C67.9898 66.0573 76.0925 57.9546 76.0925 48.0072C76.0925 38.0597 67.9986 29.957 58.0423 29.957ZM72.0853 48.016C72.0853 55.7568 65.7832 62.0589 58.0423 62.0589C50.3015 62.0589 43.9994 55.7568 43.9994 48.016C43.9994 40.2752 50.3015 33.9731 58.0423 33.9731C65.7832 33.9731 72.0853 40.2664 72.0853 48.016Z" fill="#A5A8B1"/>
<path d="M65.0949 40.2746C64.1681 39.7185 62.8971 40.0451 62.341 40.9631L57.6454 48.7921L53.444 44.5907C52.6849 43.8317 51.3697 43.8317 50.6107 44.5907C49.8251 45.3763 49.8251 46.6473 50.6107 47.424L56.6303 53.4437C57.001 53.8144 57.513 54.0262 58.0426 54.0262C58.122 54.0262 58.2103 54.0262 58.2897 54.0086C58.9075 53.9291 59.446 53.5849 59.7637 53.0465L65.7834 43.0196C66.057 42.5607 66.1453 42.0222 66.0129 41.5015C65.8805 40.9895 65.5539 40.5482 65.0949 40.2746Z" fill="#A5A8B1"/>
</g>
<defs>
<clipPath id="clip0_603_170">
<rect width="76.0931" height="88" fill="white"/>
</clipPath>
</defs>
</svg>
