<svg width="88" height="88" viewBox="0 0 88 88" fill="none" xmlns="http://www.w3.org/2000/svg">
<path d="M76.0683 62.0801C73.1134 60.3732 69.7162 59.8201 66.4058 60.4918L54.4127 48.4963L66.4137 36.4929C67.3065 36.6667 68.2072 36.7536 69.0999 36.7536C73.9667 36.7536 78.6122 34.1775 81.1325 29.8076C82.9892 26.5993 83.479 22.8537 82.523 19.274C81.5671 15.7022 79.268 12.7073 76.0525 10.8503C69.4239 7.02564 60.9149 9.30147 57.0831 15.9314C55.3766 18.8868 54.8236 22.2847 55.4951 25.5958L43.502 37.5834L42.5302 36.6114C41.9298 36.0108 40.9501 36.0108 40.3497 36.6114C39.7492 37.212 39.7492 38.1918 40.3497 38.7924L41.3214 39.7644L34.7797 46.3074L23.2607 34.8097L29.8024 28.2588L30.5213 28.9779C31.1218 29.5785 32.1014 29.5785 32.7019 28.9779C33.3023 28.3773 33.3023 27.3975 32.7019 26.7969L31.501 25.5879C32.6466 19.8035 29.9841 13.8531 24.8171 10.8661C20.8115 8.55867 15.9368 8.38482 11.7811 10.4157C10.3985 11.0874 9.67955 11.9566 9.64005 12.9997C9.60844 14.027 10.2247 14.912 11.4809 15.639L15.6208 18.0334C16.3239 18.4443 16.3239 18.6339 16.3239 18.9974V20.7675C16.3239 21.8738 16.2133 22.0635 15.2574 22.6166L13.7247 23.5017C13.4244 23.6755 13.2427 23.7783 12.5396 23.3753L8.39965 20.9809C7.14346 20.2539 6.06108 20.1591 5.19201 20.7043C4.30714 21.2575 3.91211 22.3164 4.02272 23.8494C4.34665 28.4643 6.93014 32.605 10.9357 34.9124C13.8906 36.6193 17.2878 37.1725 20.5982 36.5008L32.5913 48.4884L20.5903 60.4918C14.807 59.346 8.84999 62.0011 5.86356 67.1691C4.00692 70.3774 3.51708 74.123 4.47306 77.7027C5.43693 81.2824 7.7281 84.2773 10.9436 86.1343C13.1242 87.3908 15.5102 87.9914 17.8646 87.9914C22.6681 87.9914 27.3453 85.5022 29.913 81.0532C31.6195 78.0978 32.1725 74.6999 31.501 71.3889L43.502 59.4013L55.503 71.4047C54.3574 77.1891 57.0199 83.1394 62.1869 86.1264C64.328 87.3671 66.7298 87.9914 69.1236 87.9914C71.2015 87.9914 73.2872 87.5251 75.2229 86.5848C76.6055 85.9131 77.3244 85.0438 77.3561 84.0008C77.3956 82.9735 76.7714 82.0884 75.5152 81.3614L71.3753 78.9671C70.6721 78.5562 70.6721 78.3665 70.6721 78.003V76.2329C70.6721 75.1266 70.7828 74.937 71.7387 74.3838L73.2714 73.4988C73.5717 73.3249 73.7534 73.2222 74.4565 73.6252L78.5964 76.0196C79.8526 76.7466 80.935 76.8414 81.8041 76.2961C82.689 75.743 83.084 74.6841 82.9734 73.1511C82.6574 68.5283 80.0739 64.3876 76.0683 62.0801ZM20.2979 33.411C17.6275 34.0274 14.8623 33.6165 12.4764 32.2415C9.41093 30.4714 7.41998 27.3263 7.11186 23.802L10.9989 26.0462C11.9628 26.6072 13.456 27.2236 15.2732 26.1726L16.8059 25.2876C18.7099 24.1892 19.421 22.9643 19.421 20.7675V18.9974C19.421 16.9034 18.1411 15.9156 17.1693 15.3624L13.2822 13.1182C16.4899 11.6168 20.2031 11.7749 23.2686 13.5449C27.3769 15.9156 29.4468 20.7043 28.404 25.2955L20.2979 33.411ZM59.7614 17.4723C62.74 12.3122 69.3606 10.5421 74.5118 13.5212C77.0084 14.9594 78.794 17.2906 79.5445 20.08C80.2872 22.8695 79.9079 25.7775 78.4621 28.2746C76.5028 31.6725 72.8922 33.6797 69.0999 33.6797C68.3099 33.6797 67.504 33.5928 66.714 33.411L58.5921 25.2955C57.9759 22.6245 58.3788 19.8588 59.7614 17.4723ZM27.2426 79.5123C24.264 84.6724 17.6433 86.4425 12.4922 83.4634C9.99557 82.0252 8.21004 79.6941 7.45948 76.9046C6.71683 74.1151 7.09605 71.2071 8.54186 68.71C10.5012 65.3121 14.1118 63.305 17.9041 63.305C18.6941 63.305 19.5 63.3919 20.29 63.5736L28.4119 71.6971C29.0281 74.368 28.6252 77.1259 27.2426 79.5123ZM29.8103 68.7258L23.2607 62.1907L57.1937 28.2588L63.7433 34.7939L29.8103 68.7258ZM45.6826 57.2203L52.2243 50.6773L63.7354 62.1828L57.1937 68.7337L45.6826 57.2203ZM76.0051 70.9464C75.0412 70.3853 73.548 69.7689 71.7308 70.8199L70.1981 71.705C68.2941 72.8034 67.583 74.0282 67.583 76.225V78.003C67.583 80.0971 68.8629 81.077 69.8347 81.638L73.7218 83.8822C70.522 85.3836 66.8009 85.2256 63.7354 83.4555C59.6271 81.0849 57.5572 76.2961 58.6 71.705L66.714 63.5815C69.3844 62.9652 72.1496 63.3761 74.5355 64.751C77.601 66.5211 79.5919 69.6662 79.9 73.1906L76.0051 70.9464Z" fill="#A5A8B1"/>
<path d="M63.7118 26.8834L68.3416 29.5543C68.5786 29.6886 68.8472 29.7598 69.1158 29.7598C69.3845 29.7598 69.6452 29.6886 69.8901 29.5543L74.5198 26.8834C74.9939 26.6068 75.2941 26.101 75.2941 25.5479V20.206C75.2941 19.6529 75.0018 19.1471 74.5198 18.8706L69.8901 16.1996C69.4161 15.923 68.8235 15.923 68.3495 16.1996L63.7197 18.8706C63.2457 19.1471 62.9455 19.6529 62.9455 20.206V25.5479C62.9376 26.101 63.2378 26.6068 63.7118 26.8834ZM66.0267 21.0911L69.1158 19.3131L72.205 21.0911V24.6549L69.1158 26.4329L66.0267 24.6549V21.0911Z" fill="#A5A8B1"/>
<path d="M23.2931 70.1088L18.6634 67.4379C18.1893 67.1613 17.5968 67.1613 17.1228 67.4379L12.493 70.1088C12.019 70.3854 11.7188 70.8911 11.7188 71.4443V76.7862C11.7188 77.3393 12.0111 77.8451 12.493 78.1216L17.1228 80.7926C17.3598 80.9269 17.6284 80.998 17.897 80.998C18.1656 80.998 18.4264 80.9269 18.6713 80.7926L23.301 78.1216C23.7751 77.8451 24.0753 77.3393 24.0753 76.7862V71.4443C24.0674 70.8911 23.7672 70.3854 23.2931 70.1088ZM20.9783 75.8932L17.8891 77.6712L14.8 75.8932V72.3293L17.8891 70.5514L20.9783 72.3293V75.8932Z" fill="#A5A8B1"/>
<path d="M36.5272 34.3358C37.3807 34.3358 38.0682 33.6483 38.0682 32.7948C38.0682 31.9414 37.3807 31.2539 36.5272 31.2539C35.6738 31.2539 34.9863 31.9414 34.9863 32.7948C34.9863 33.6483 35.6738 34.3358 36.5272 34.3358Z" fill="#A5A8B1"/>
</svg>
