<svg xmlns="http://www.w3.org/2000/svg" width="67" height="80" viewBox="0 0 67 80">
    <g fill="#2E2691" fill-rule="nonzero">
        <path d="M55.517 23.704H33.061a1.56 1.56 0 1 0 0 3.119h22.456a1.56 1.56 0 1 0 0-3.12zM50.06 31.646a1.571 1.571 0 0 0-1.102-.457c-.41 0-.813.167-1.103.457-.29.29-.457.693-.457 1.103 0 .41.167.812.457 1.102.29.29.693.457 1.103.457.41 0 .812-.167 1.102-.457.29-.29.457-.692.457-1.102 0-.41-.167-.813-.457-1.103zM34.162 7.163a1.571 1.571 0 0 0-1.103-.457c-.41 0-.812.167-1.103.457-.29.29-.456.692-.456 1.102 0 .41.166.813.456 1.103.29.29.693.457 1.103.457.41 0 .813-.167 1.103-.457.29-.29.456-.693.456-1.103 0-.41-.166-.812-.456-1.102zM42.398 31.19h-9.337a1.56 1.56 0 1 0 0 3.118h9.337a1.56 1.56 0 1 0 0-3.119zM55.517 40.546H33.061a1.56 1.56 0 1 0 0 3.119h22.456a1.56 1.56 0 1 0 0-3.12zM50.06 48.488a1.571 1.571 0 0 0-1.102-.457c-.41 0-.813.167-1.103.457-.29.29-.457.693-.457 1.103 0 .41.167.812.457 1.102.29.29.693.457 1.103.457.41 0 .812-.167 1.102-.457.29-.29.457-.692.457-1.102 0-.41-.167-.813-.457-1.103zM42.398 48.031h-9.337a1.56 1.56 0 1 0 0 3.12h9.337a1.56 1.56 0 1 0 0-3.12zM55.517 57.388H33.061a1.56 1.56 0 1 0 0 3.119h22.456a1.56 1.56 0 1 0 0-3.12zM50.06 65.33a1.571 1.571 0 0 0-1.102-.457c-.41 0-.813.167-1.103.457-.29.29-.457.693-.457 1.103 0 .41.167.812.457 1.102.29.29.693.457 1.103.457.41 0 .812-.167 1.102-.457.29-.29.457-.692.457-1.102 0-.41-.167-.813-.457-1.103zM42.398 64.873h-9.337a1.56 1.56 0 1 0 0 3.12h9.337a1.56 1.56 0 1 0 0-3.12z"/>
        <path d="M58.517 6.082h-11.91a9.554 9.554 0 0 0-6.61-2.651H38.63A6.258 6.258 0 0 0 33.06 0a6.258 6.258 0 0 0-5.57 3.43h-1.37a9.554 9.554 0 0 0-6.61 2.652H7.604C3.41 6.082 0 9.493 0 13.686V72.24c0 4.192 3.411 7.603 7.604 7.603h50.913c4.193 0 7.604-3.41 7.604-7.603V13.686c0-4.193-3.411-7.604-7.604-7.604zm-32.396.468h2.43a1.56 1.56 0 0 0 1.504-1.145A3.126 3.126 0 0 1 33.06 3.12c1.397 0 2.634.94 3.005 2.286A1.56 1.56 0 0 0 37.57 6.55h2.428a6.48 6.48 0 0 1 6.449 5.926H19.672a6.48 6.48 0 0 1 6.449-5.926zm36.881 65.69a4.49 4.49 0 0 1-4.485 4.485H7.604a4.49 4.49 0 0 1-4.485-4.484V13.686A4.49 4.49 0 0 1 7.604 9.2h9.722a9.534 9.534 0 0 0-.796 3.82v1.014c0 .862.699 1.56 1.56 1.56h29.938a1.56 1.56 0 0 0 1.56-1.56v-1.013c0-1.358-.286-2.65-.797-3.821h9.726a4.49 4.49 0 0 1 4.485 4.485V72.24z"/>
        <path d="M23.144 23.329a1.56 1.56 0 0 0-2.206 0l-6.668 6.668-2.054-2.054a1.56 1.56 0 0 0-2.206 2.205l3.157 3.158c.305.304.704.456 1.103.456s.798-.152 1.103-.456l7.77-7.772a1.56 1.56 0 0 0 0-2.205zM19.337 57.388h-7.485a1.56 1.56 0 0 0-1.56 1.56v7.485c0 .861.699 1.56 1.56 1.56h7.485a1.56 1.56 0 0 0 1.56-1.56v-7.486a1.56 1.56 0 0 0-1.56-1.56zm-1.56 7.485h-4.366v-4.366h4.367v4.366zM19.337 40.546h-7.485a1.56 1.56 0 0 0-1.56 1.56v7.485c0 .86.699 1.56 1.56 1.56h7.485a1.56 1.56 0 0 0 1.56-1.56v-7.486a1.56 1.56 0 0 0-1.56-1.56zm-1.56 7.485h-4.366v-4.366h4.367v4.366z"/>
    </g>
</svg>
