<svg width="57" height="80" viewBox="0 0 57 80" fill="none" xmlns="http://www.w3.org/2000/svg">
<g clip-path="url(#clip0_603_144)">
<path d="M5.03668 10C5.96187 10 6.71007 9.256 6.71007 8.336V6.664H10.0649V8.328C10.0649 9.248 10.8131 9.992 11.7383 9.992C12.6635 9.992 13.4117 9.248 13.4117 8.328V5V1.664C13.4117 0.744 12.6635 0 11.7383 0C10.8131 0 10.0649 0.744 10.0649 1.664V3.328H6.71007V1.664C6.71007 1.608 6.71007 1.552 6.70202 1.496C6.62157 0.656 5.90555 0 5.03668 0C4.11148 0 3.36328 0.744 3.36328 1.664V8.328C3.36328 9.256 4.11148 10 5.03668 10Z" fill="#A5A8B1"/>
<path d="M18.4468 3.336H20.1202V8.336C20.1202 9.256 20.8684 10 21.7936 10C22.7188 10 23.467 9.256 23.467 8.336V3.336H25.1404C26.0656 3.336 26.8138 2.592 26.8138 1.672C26.8138 0.752 26.0736 0 25.1485 0H18.4468C17.5216 0 16.7734 0.744 16.7734 1.664C16.7734 2.584 17.5216 3.336 18.4468 3.336Z" fill="#A5A8B1"/>
<path d="M31.8511 10.0003C32.7763 10.0003 33.5245 9.25633 33.5245 8.33633V6.66433L35.5358 9.32833C35.6082 9.41633 35.6887 9.49633 35.7772 9.56833C36.5173 10.1763 37.6115 10.0723 38.2229 9.32833L40.2342 6.66433V8.32833C40.2342 9.24833 40.9824 9.99233 41.9076 9.99233C42.8328 9.99233 43.581 9.24833 43.581 8.32833V1.66433C43.581 1.13633 43.3316 0.648327 42.9132 0.328327C42.1731 -0.223673 41.1192 -0.0716731 40.564 0.664327L36.8794 5.55233L33.1947 0.664327C32.8809 0.248327 32.3821 0.000326958 31.8511 0.000326958C30.9259 0.000326958 30.1777 0.744327 30.1777 1.66433V8.32833C30.1777 9.25633 30.9259 10.0003 31.8511 10.0003Z" fill="#A5A8B1"/>
<path d="M48.6168 10H53.6451C54.5702 10 55.3184 9.256 55.3184 8.336C55.3184 7.416 54.5702 6.672 53.6451 6.672H50.2902V1.664C50.2902 0.744 49.542 0 48.6168 0C47.6916 0 46.9434 0.744 46.9434 1.664V8.328C46.9354 9.256 47.6916 10 48.6168 10Z" fill="#A5A8B1"/>
<path d="M55.3185 16.6641H1.68142C1.6251 16.6641 1.56878 16.6641 1.51247 16.6721C0.587273 16.7601 -0.0885211 17.5681 -2.42922e-05 18.4881L5.0282 71.8241C5.09257 72.5121 5.57528 73.0801 6.24302 73.2641L29.7108 79.9281C29.8636 79.9681 30.0165 79.9921 30.1693 79.9921C30.3544 79.9921 30.5314 79.9681 30.7084 79.9121L50.8213 73.2481C51.4488 73.0401 51.8993 72.4801 51.9637 71.8241L56.9919 18.4881C57 18.4321 57 18.3761 57 18.3201C57 17.4081 56.2437 16.6641 55.3185 16.6641ZM48.7215 70.4241L30.1372 76.5841L8.27041 70.3761L3.52376 20.0001H53.4762L48.7215 70.4241Z" fill="#A5A8B1"/>
<path d="M13.4202 45.2078C13.5248 46.0478 14.2489 46.6718 15.0936 46.6638H40.0578L38.674 60.4238L30.1381 63.2558L19.8322 60.3278L18.3921 54.5918C18.3841 54.5678 18.3841 54.5438 18.376 54.5198C18.1347 53.6318 17.2095 53.1118 16.3165 53.3518C15.4235 53.5918 14.9005 54.5118 15.1419 55.3998L16.8153 62.0638C16.9601 62.6398 17.4026 63.0958 17.9818 63.2638L29.7117 66.5998C29.8645 66.6398 30.0174 66.6638 30.1702 66.6638C30.3553 66.6638 30.5323 66.6398 30.7093 66.5838L40.7657 63.2478C41.3932 63.0398 41.8357 62.4878 41.9001 61.8318L43.5735 45.1678C43.5815 45.1118 43.5815 45.0478 43.5815 44.9918C43.5735 44.0718 42.8253 43.3278 41.9001 43.3358H16.5739L15.3189 33.3358H45.263C46.1882 33.3358 46.9364 32.5918 46.9364 31.6718C46.9364 30.7518 46.1882 30.0078 45.263 30.0078H13.4202C13.3478 30.0078 13.2674 30.0078 13.1949 30.0238C12.2778 30.1438 11.6261 30.9758 11.7468 31.8878L13.4202 45.2078Z" fill="#A5A8B1"/>
</g>
<defs>
<clipPath id="clip0_603_144">
<rect width="57" height="80" fill="white"/>
</clipPath>
</defs>
</svg>
