<svg width="75" height="88" viewBox="0 0 75 88" fill="none" xmlns="http://www.w3.org/2000/svg">
<g clip-path="url(#clip0_603_140)">
<path d="M69.1064 61.1512L68.4112 60.9048V43.0232C68.4112 28.6704 58.696 16.2008 44.7744 12.6984L43.516 12.3816L44.0968 11.22C44.6336 10.1376 44.9064 8.976 44.9064 7.7704C44.9064 3.4848 41.4216 0 37.136 0C32.8504 0 29.3656 3.4848 29.3656 7.7704C29.3656 8.976 29.6384 10.1376 30.1752 11.22L30.756 12.3816L29.4976 12.6984C15.5936 16.2008 5.8784 28.6704 5.8784 43.0232V60.9136L5.1832 61.16C2.0856 62.2512 0 65.1992 0 68.4816C0 72.7672 3.4848 76.252 7.7704 76.252H23.6016L23.7688 77.088C25.0536 83.4152 30.6768 88 37.136 88C43.5952 88 49.2184 83.4064 50.5032 77.088L50.6704 76.252H66.5016C70.7872 76.252 74.272 72.7672 74.272 68.4816C74.2896 65.1992 72.2128 62.2512 69.1064 61.1512ZM37.1448 3.7928C39.336 3.7928 41.1224 5.5792 41.1224 7.7704C41.1224 9.9616 39.336 11.748 37.1448 11.748C34.9536 11.748 33.1672 9.9616 33.1672 7.7704C33.1672 5.5792 34.9536 3.7928 37.1448 3.7928ZM46.4376 77.6248C45.0384 81.5672 41.3072 84.216 37.1448 84.216C32.9824 84.216 29.2512 81.5672 27.852 77.6248L27.3592 76.2344H46.9216L46.4376 77.6248ZM66.5192 72.4592H7.7704C5.5792 72.4592 3.7928 70.6728 3.7928 68.4816C3.7928 66.2904 5.5792 64.504 7.7704 64.504H13.6488C14.696 64.504 15.5408 63.6504 15.5408 62.612C15.5408 61.5736 14.6872 60.72 13.6488 60.72H9.6712V43.032C9.6712 27.8784 22 15.5496 37.1536 15.5496C52.3072 15.5496 64.636 27.8784 64.636 43.032V60.72H60.6496C59.6024 60.72 58.7576 61.5736 58.7576 62.612C58.7576 63.6504 59.6112 64.504 60.6496 64.504H66.528C68.7192 64.504 70.5056 66.2904 70.5056 68.4816C70.5056 70.6728 68.7192 72.4592 66.5192 72.4592Z" fill="#A5A8B1"/>
<path d="M37.1453 23.4961C26.383 23.4961 17.627 32.2521 17.627 43.0145C17.627 44.0617 18.4806 44.9065 19.519 44.9065C20.5662 44.9065 21.411 44.0529 21.411 43.0145C21.411 34.3377 28.4686 27.2801 37.1453 27.2801C38.1926 27.2801 39.0374 26.4265 39.0374 25.3881C39.0374 24.3497 38.1926 23.4961 37.1453 23.4961Z" fill="#A5A8B1"/>
</g>
<defs>
<clipPath id="clip0_603_140">
<rect width="74.2896" height="88" fill="white"/>
</clipPath>
</defs>
</svg>
