<svg xmlns="http://www.w3.org/2000/svg" width="80" height="80" viewBox="0 0 80 80">
    <g fill="#2E2691" fill-rule="nonzero">
        <path d="M2.996 31.938h3.423c.466.3.98.522 1.518.658.665 2.014 2.508 6.699 5.826 8.215 3.736 1.73 3.953 1.773 7.718 1.773 3.764 0 3.967-.05 7.7-1.771 3.326-1.518 5.17-6.204 5.831-8.219a5.722 5.722 0 0 0 3.048-1.987h1.531a2.945 2.945 0 0 0 2.994-2.883v-6.21a2.853 2.853 0 0 0-1.375-2.417C40.756 8.419 31.962-.001 21.275.009 10.588.02 1.809 8.454 1.374 19.133A3.135 3.135 0 0 0 0 21.736v7.097a3.062 3.062 0 0 0 2.995 3.105zm-.333-3.105v-7.097c0-.242.152-.444.333-.444h3.66v.865c-.01.085-.01.17 0 .256v6.863h-3.66c-.181 0-.333-.202-.333-.443zm18.63-20.848a11.986 11.986 0 0 1 11.85 10.332c-2.711-2.07-6.035-3.47-9.886-1.73a4.735 4.735 0 0 1-3.917 0c-3.86-1.745-7.186-.346-9.897 1.73a11.984 11.984 0 0 1 11.85-10.332zM32.705 31.03c-.455 1.666-2.172 6.237-4.637 7.364-3.315 1.528-3.315 1.528-6.588 1.528-3.274 0-3.287 0-6.606-1.53-1.578-.722-2.848-2.86-3.677-4.741a26.02 26.02 0 0 0 7.435.948 1.33 1.33 0 1 0 0-2.662c-5.61 0-8.362-1.377-9.315-1.996v-7.009c.056-.205.056-.42 0-.625v-.368c3.534-3.317 6.152-4.174 8.936-2.918 1.936.87 4.154.87 6.09 0 2.776-1.256 5.391-.4 8.927 2.927v7.327c.004.31.118.606.321.84a1.33 1.33 0 0 0-.886.915zm7.219-3.307c0 .105-.141.222-.333.222h-3.66v-6.654h3.66c.192 0 .333.117.333.222v6.21zM21.294 2.662c9.033.011 16.542 6.963 17.248 15.969h-2.67A14.656 14.656 0 0 0 22.358 5.374c-.033 0-.063-.021-.097-.023-.304-.014-.59-.02-.945-.026h-.062l-.92.026a1.139 1.139 0 0 0-.108.024 14.654 14.654 0 0 0-13.51 13.256H4.043c.707-9.006 8.215-15.958 17.25-15.969zM29.278 78.514a1.331 1.331 0 1 1-2.662 0 1.331 1.331 0 0 1 2.662 0zM34.601 78.514a1.33 1.33 0 1 1-2.662 0 1.33 1.33 0 0 1 2.662 0zM47.908 10.646a1.331 1.331 0 1 1-2.662 0 1.331 1.331 0 0 1 2.662 0zM53.231 10.646a1.331 1.331 0 1 1-2.662 0 1.331 1.331 0 0 1 2.662 0zM78.471 56.357C78.017 45.68 69.223 37.26 58.536 37.27c-10.688.01-19.466 8.446-19.902 19.124a3.135 3.135 0 0 0-1.372 2.603v7.098a3.06 3.06 0 0 0 2.994 3.104h3.423c.467.3.98.523 1.517.658.665 2.015 2.51 6.7 5.827 8.216 3.737 1.73 3.954 1.773 7.718 1.773 3.765 0 3.967-.05 7.7-1.772 3.327-1.518 5.171-6.203 5.832-8.219a5.72 5.72 0 0 0 3.048-1.986h1.53a2.945 2.945 0 0 0 2.995-2.884v-6.209a2.853 2.853 0 0 0-1.375-2.418zM58.554 39.923c9.034.01 16.542 6.962 17.249 15.968h-2.67a14.655 14.655 0 0 0-13.514-13.256c-.034 0-.063-.022-.098-.023-.189-.01-.385-.008-.585-.01-.133 0-.254-.018-.385-.018h-.037l-.92.026a1.143 1.143 0 0 0-.107.025A14.654 14.654 0 0 0 43.976 55.89h-2.671c.706-9.006 8.215-15.957 17.249-15.968zm0 5.322a11.986 11.986 0 0 1 11.85 10.332c-2.712-2.069-6.036-3.47-9.887-1.73a4.725 4.725 0 0 1-3.917 0c-3.859-1.745-7.185-.346-9.896 1.73a11.984 11.984 0 0 1 11.85-10.332zm-18.63 20.85v-7.099c0-.241.152-.443.332-.443h3.66v.865c-.009.085-.009.17 0 .255v6.864h-3.66c-.18 0-.332-.202-.332-.443zm30.041 2.196c-.455 1.666-2.172 6.238-4.636 7.364-3.315 1.528-3.315 1.528-6.589 1.528-3.273 0-3.287 0-6.605-1.529-1.579-.723-2.848-2.86-3.679-4.741 2.42.672 4.925.991 7.436.947a1.331 1.331 0 0 0 0-2.662c-5.61 0-8.362-1.377-9.315-1.995v-7.01c.056-.204.056-.42 0-.625v-.367c3.535-3.318 6.153-4.175 8.937-2.919 1.936.87 4.153.87 6.09 0 2.776-1.256 5.391-.399 8.927 2.928v7.327c.004.309.118.606.32.839a1.33 1.33 0 0 0-.886.915zm7.22-3.307c0 .106-.142.223-.333.223h-3.66v-6.654h3.66c.191 0 .332.117.332.222v6.21zM42.488 39.424a1.33 1.33 0 0 0-1.234-.832h-1.872L79.41 2.317A1.331 1.331 0 1 0 77.621.345L35.037 38.936a1.331 1.331 0 0 0 .894 2.317h2.031L.408 77.557a1.333 1.333 0 0 0 1.856 1.914l39.922-38.592c.388-.378.507-.954.302-1.455zM47.908 1.331a1.33 1.33 0 0 0-2.661 0v3.992a1.33 1.33 0 0 0 2.661 0V1.331zM53.231 1.331a1.33 1.33 0 0 0-2.661 0v3.992a1.33 1.33 0 0 0 2.661 0V1.331zM29.278 69.198a1.331 1.331 0 0 0-2.662 0v3.993a1.331 1.331 0 0 0 2.662 0v-3.993zM34.601 69.198a1.33 1.33 0 0 0-2.661 0v3.993a1.33 1.33 0 1 0 2.661 0v-3.993z"/>
    </g>
</svg>
