<svg width="79" height="79" viewBox="0 0 79 79" fill="none" xmlns="http://www.w3.org/2000/svg">
<path d="M74.0625 0H4.9375C2.212 0 0 2.212 0 4.9375V54.3125C0 57.038 2.212 59.25 4.9375 59.25H26.3307V69.125H23.0364C22.1279 69.125 21.3932 69.8597 21.3932 70.7682V75.7057H19.75C18.8415 75.7057 18.1068 76.4404 18.1068 77.3489C18.1068 78.2574 18.8415 78.9921 19.75 78.9921H24.6875H34.5625C35.471 78.9921 36.2057 78.2574 36.2057 77.3489C36.2057 76.4404 35.471 75.7057 34.5625 75.7057H24.6875V72.4114H27.9818H34.5625C35.471 72.4114 36.2057 71.6767 36.2057 70.7682C36.2057 69.8597 35.471 69.125 34.5625 69.125H29.625V59.25H34.5625C35.471 59.25 36.2057 58.5153 36.2057 57.6068C36.2057 56.6983 35.471 55.9636 34.5625 55.9636H4.9375C4.029 55.9636 3.2943 55.2289 3.2943 54.3204V4.9375C3.2943 4.029 4.029 3.2943 4.9375 3.2943H74.0625C74.971 3.2943 75.7057 4.029 75.7057 4.9375V18.1068C75.7057 19.0153 76.4404 19.75 77.3489 19.75C78.2574 19.75 78.9921 19.0153 78.9921 18.1068V4.9375C79 2.212 76.788 0 74.0625 0Z" fill="#A5A8B1"/>
<path d="M34.5632 47.7324H11.5189V11.5188H67.4746V18.0995C67.4746 19.008 68.2093 19.7427 69.1178 19.7427C70.0263 19.7427 70.761 19.008 70.761 18.0995V9.87562C70.761 8.96712 70.0263 8.23242 69.1178 8.23242H9.86781C8.95931 8.23242 8.22461 8.96712 8.22461 9.87562V49.3756C8.22461 50.2841 8.95931 51.0188 9.86781 51.0188H34.5553C35.4638 51.0188 36.1985 50.2841 36.1985 49.3756C36.2064 48.4671 35.4717 47.7324 34.5632 47.7324Z" fill="#A5A8B1"/>
<path d="M16.4557 14.8125C15.5472 14.8125 14.8125 15.5472 14.8125 16.4557V21.3932C14.8125 22.3017 15.5472 23.0364 16.4557 23.0364C17.3642 23.0364 18.0989 22.3017 18.0989 21.3932V18.0989H21.3932C22.3017 18.0989 23.0364 17.3642 23.0364 16.4557C23.0364 15.5472 22.3017 14.8125 21.3932 14.8125H16.4557Z" fill="#A5A8B1"/>
<path d="M74.0625 23.0449H44.4375C41.712 23.0449 39.5 25.2569 39.5 27.9824V74.0631C39.5 76.7886 41.712 79.0006 44.4375 79.0006H74.0625C76.788 79.0006 79 76.7886 79 74.0631V27.9824C79 25.249 76.788 23.0449 74.0625 23.0449ZM75.7057 74.0631C75.7057 74.9716 74.971 75.7063 74.0625 75.7063H44.4375C43.529 75.7063 42.7943 74.9716 42.7943 74.0631V27.9824C42.7943 27.0739 43.529 26.3392 44.4375 26.3392H74.0625C74.971 26.3392 75.7057 27.0739 75.7057 27.9824V74.0631Z" fill="#A5A8B1"/>
<path d="M70.7675 31.2676H47.7311C46.8226 31.2676 46.0879 32.0023 46.0879 32.9108C46.0879 33.8193 46.8226 34.554 47.7311 34.554H70.7754C71.6839 34.554 72.4186 33.8193 72.4186 32.9108C72.4186 32.0102 71.676 31.2676 70.7675 31.2676Z" fill="#A5A8B1"/>
<path d="M70.7675 67.4824H47.7311C46.8226 67.4824 46.0879 68.2171 46.0879 69.1256C46.0879 70.0341 46.8226 70.7688 47.7311 70.7688H70.7754C71.6839 70.7688 72.4186 70.0341 72.4186 69.1256C72.4186 68.2171 71.676 67.4824 70.7675 67.4824Z" fill="#A5A8B1"/>
<path d="M47.7312 46.0813C48.6397 46.0813 49.3744 45.3466 49.3744 44.4381V41.1438H52.6687C53.5772 41.1438 54.3119 40.4091 54.3119 39.5006C54.3119 38.5921 53.5772 37.8574 52.6687 37.8574H47.7312C46.8227 37.8574 46.088 38.5921 46.088 39.5006V44.4381C46.0801 45.3466 46.8227 46.0813 47.7312 46.0813Z" fill="#A5A8B1"/>
</svg>
