<svg width="88" height="88" viewBox="0 0 88 88" fill="none" xmlns="http://www.w3.org/2000/svg">
<g clip-path="url(#clip0_603_162)">
<path d="M66.0003 55C61.9523 55 58.6699 58.2912 58.6699 62.3304V75.1608C58.6699 76.1728 59.4883 76.9912 60.5003 76.9912C61.5123 76.9912 62.3307 76.1728 62.3307 75.1608V69.6608H69.6611V75.1608C69.6611 76.1728 70.4795 76.9912 71.4915 76.9912C72.5035 76.9912 73.3219 76.1728 73.3219 75.1608V62.3304C73.3307 58.2912 70.0483 55 66.0003 55ZM62.3307 66V62.3304C62.3307 60.3064 63.9763 58.6608 66.0003 58.6608C68.0243 58.6608 69.6699 60.3064 69.6699 62.3304V66H62.3307Z" fill="#A5A8B1"/>
<path d="M78.8304 44H53.1696C48.1096 44 44 48.1096 44 53.1696V78.8392C44 83.8904 48.1096 88 53.1696 88H78.8392C83.8904 88 88.0088 83.8904 88.0088 78.8304V53.1696C88 48.1096 83.8904 44 78.8304 44ZM84.3304 78.8304C84.3304 81.8664 81.8664 84.3304 78.8304 84.3304H53.1696C50.1336 84.3304 47.6696 81.8664 47.6696 78.8304V53.1696C47.6696 50.1336 50.1336 47.6696 53.1696 47.6696H78.8392C81.8752 47.6696 84.3392 50.1336 84.3392 53.1696V78.8304H84.3304Z" fill="#A5A8B1"/>
<path d="M56.8294 18.3298H64.1598C67.1958 18.3298 69.6598 20.7938 69.6598 23.8298V31.1602C69.6598 32.1722 70.4782 32.9906 71.4902 32.9906C72.5022 32.9906 73.3206 32.1722 73.3206 31.1602V23.8298C73.3206 18.7786 69.211 14.6602 64.151 14.6602H56.8206C55.8086 14.6602 54.9902 15.4786 54.9902 16.4906C54.9902 17.5026 55.8174 18.3298 56.8294 18.3298Z" fill="#A5A8B1"/>
<path d="M31.1689 69.6706H23.8385C20.8025 69.6706 18.3385 67.2066 18.3385 64.1706V56.8402C18.3385 55.8282 17.5201 55.0098 16.5081 55.0098C15.4961 55.0098 14.6777 55.8282 14.6777 56.8402V64.1706C14.6777 69.2218 18.7961 73.3402 23.8473 73.3402H31.1777C32.1897 73.3402 33.0081 72.5218 33.0081 71.5098C32.9993 70.489 32.1809 69.6706 31.1689 69.6706Z" fill="#A5A8B1"/>
<path d="M44 9.1696C44 4.1096 39.8904 0 34.8304 0H9.1696C4.1096 0 0 4.1096 0 9.1696V34.8392C0 39.8904 4.1096 44 9.1696 44H34.8392C39.8904 44 44 39.8904 44 34.8304V9.1696ZM40.3304 34.8304C40.3304 37.8664 37.8664 40.3304 34.8304 40.3304H9.1696C6.1336 40.3304 3.6696 37.8664 3.6696 34.8304V9.1696C3.6696 6.1336 6.1336 3.6696 9.1696 3.6696H34.8392C37.8752 3.6696 40.3392 6.1336 40.3392 9.1696V34.8304H40.3304Z" fill="#A5A8B1"/>
<path d="M31.584 29.3842C29.0408 28.7946 26.876 28.0114 25.072 27.0346C27.3864 24.685 28.7592 21.781 29.1904 18.3314H31.1616C32.1736 18.3314 32.992 17.513 32.992 16.501C32.992 15.489 32.1736 14.6706 31.1616 14.6706H27.5536C27.4216 14.653 27.2984 14.653 27.1752 14.6706H23.8312V12.8402C23.8312 11.8282 23.0128 11.0098 22.0008 11.0098C20.9888 11.0098 20.1704 11.8282 20.1704 12.8402V14.6706H16.8176C16.6944 14.653 16.5712 14.653 16.448 14.6706H12.84C11.828 14.6706 11.0096 15.489 11.0096 16.501C11.0096 17.513 11.828 18.3314 12.84 18.3314H14.8112C15.2424 21.781 16.6152 24.685 18.9296 27.0346C17.1256 28.0114 14.9608 28.7858 12.4264 29.3842C11.4408 29.613 10.8248 30.5986 11.0536 31.5842C11.2472 32.429 12.004 33.001 12.84 33.001C12.972 33.001 13.1128 32.9834 13.2536 32.957C16.7296 32.1474 19.6512 30.9858 22.0096 29.4986C24.368 30.9946 27.2808 32.1474 30.7656 32.957C30.9064 32.9922 31.0472 33.001 31.1792 33.001C32.0152 33.001 32.7632 32.429 32.9656 31.5842C33.1856 30.5986 32.5696 29.613 31.584 29.3842ZM18.516 18.3314H25.4856C25.0544 20.9274 23.9016 23.101 22.0008 24.8698C20.1 23.101 18.9472 20.9362 18.516 18.3314Z" fill="#A5A8B1"/>
</g>
<defs>
<clipPath id="clip0_603_162">
<rect width="88" height="88" fill="white"/>
</clipPath>
</defs>
</svg>
