<svg width="88" height="81" viewBox="0 0 88 81" fill="none" xmlns="http://www.w3.org/2000/svg">
<path d="M25.548 34.6964C24.88 34.0283 23.7129 34.0283 23.0367 34.6964C22.3445 35.3886 22.3445 36.5154 23.0367 37.2077L33.9834 48.1543L23.0367 59.101C22.6987 59.4391 22.5216 59.8818 22.5216 60.3567C22.5216 60.8315 22.7067 61.2743 23.0448 61.6123C23.3748 61.9504 23.8175 62.1274 24.2924 62.1274C24.7673 62.1274 25.21 61.9423 25.548 61.6043L37.7504 49.4019C38.0884 49.0639 38.2655 48.6212 38.2655 48.1463C38.2655 47.6714 38.0804 47.2287 37.7423 46.8906L25.548 34.6964Z" fill="#A5A8B1"/>
<path d="M63.7006 58.5781H46.8138C45.8398 58.5781 45.043 59.375 45.043 60.3489C45.043 61.3228 45.8398 62.1197 46.8138 62.1197H63.7006C64.6745 62.1197 65.4714 61.3228 65.4714 60.3489C65.4794 59.375 64.6826 58.5781 63.7006 58.5781Z" fill="#A5A8B1"/>
<path d="M78.7195 0.400391H9.28053C4.16135 0.400391 0 4.56174 0 9.68092V71.6101C0 76.7293 4.16135 80.8906 9.28053 80.8906H78.7195C83.8387 80.8906 88 76.7293 88 71.6101V9.68092C88 4.56174 83.8306 0.400391 78.7195 0.400391ZM78.7195 77.3491H9.28053C6.11726 77.3491 3.54962 74.7734 3.54962 71.6182V17.086H84.4584V71.6182C84.4504 74.7734 81.8827 77.3491 78.7195 77.3491ZM3.54157 13.5364V9.68092C3.54157 6.51765 6.11726 3.95001 9.27248 3.95001H78.7195C81.8827 3.95001 84.4504 6.5257 84.4504 9.68092V13.5364H3.54157Z" fill="#A5A8B1"/>
</svg>
