<svg xmlns="http://www.w3.org/2000/svg" width="80" height="75" viewBox="0 0 80 75">
    <g fill="#2E2691" fill-rule="nonzero">
        <path d="M50.938 37.5a1.563 1.563 0 1 0 0 3.126 1.563 1.563 0 0 0 0-3.126z"/>
        <path d="M65 62.5h-1.867l-5.086-28.519A10.934 10.934 0 0 0 47.284 25H32.716c-5.29 0-9.816 3.777-10.762 8.986L16.867 62.5H15a4.693 4.693 0 0 0-4.688 4.688v6.25c0 .862.7 1.562 1.563 1.562h56.25c.863 0 1.563-.7 1.563-1.563v-6.25A4.693 4.693 0 0 0 65 62.5zM25.03 34.54a7.807 7.807 0 0 1 7.686-6.415h14.568a7.809 7.809 0 0 1 7.687 6.41L59.96 62.5H20.041l4.989-27.96zm41.532 37.335H13.438v-4.688c0-.861.7-1.562 1.562-1.562h50c.862 0 1.563.7 1.563 1.563v4.687z"/>
        <path d="M55.975 57.533l-2.292-12.617a1.562 1.562 0 1 0-3.075.559L52.9 58.092a1.563 1.563 0 0 0 3.075-.559zM78.438 37.5H65a1.563 1.563 0 0 0 0 3.125h13.438a1.563 1.563 0 0 0 0-3.125zM15 37.5H1.562a1.563 1.563 0 0 0 0 3.125H15a1.563 1.563 0 0 0 0-3.125zM67.622 11.44c-.61-.61-1.6-.61-2.21 0l-8.839 8.84a1.563 1.563 0 0 0 2.21 2.21l8.839-8.84c.61-.61.61-1.6 0-2.21zM23.427 20.28l-8.84-8.84a1.563 1.563 0 0 0-2.209 2.21l8.839 8.84a1.563 1.563 0 0 0 2.21-2.21zM40 0c-.863 0-1.563.7-1.563 1.563v12.5a1.563 1.563 0 0 0 3.126 0v-12.5C41.563.7 40.862 0 40 0z"/>
    </g>
</svg>
