<svg xmlns="http://www.w3.org/2000/svg" width="26" height="21" viewBox="0 0 26 21">
    <path fill="#2E2691" fill-rule="nonzero" d="M25.807 2.499c-.95.42-1.969.706-3.04.834A5.316 5.316 0 0 0 25.094.406 10.673 10.673 0 0 1 21.73 1.69a5.294 5.294 0 0 0-9.021 4.827A15.03 15.03 0 0 1 1.8.986a5.254 5.254 0 0 0-.717 2.661c0 1.837.935 3.458 2.355 4.406a5.295 5.295 0 0 1-2.398-.665v.066a5.3 5.3 0 0 0 4.246 5.192c-.444.119-.911.185-1.395.185-.342 0-.673-.034-.997-.098a5.297 5.297 0 0 0 4.945 3.677 10.622 10.622 0 0 1-6.575 2.262c-.428 0-.849-.026-1.263-.072a14.965 14.965 0 0 0 8.115 2.381c9.739 0 15.062-8.066 15.062-15.062l-.018-.685a10.572 10.572 0 0 0 2.648-2.735z"/>
</svg>
